<svg xmlns="http://www.w3.org/2000/svg" viewBox="0 0 1461.22 446.59"><defs><style>.cls-1{fill:#fff;}.cls-2{fill:#e62c2e;}</style></defs><g id="Layer_2" data-name="Layer 2"><g id="Laag_1" data-name="Laag 1"><path class="cls-1" d="M309.09,40.3a43.59,43.59,0,0,0-9.15-23.39,43,43,0,0,0-4.23-4.64A44,44,0,0,0,273.16.87,54.81,54.81,0,0,0,263.5,0c-11,0-21.54,3.36-32.34,10.28a68.09,68.09,0,0,0-6.44,4.84,70.15,70.15,0,0,0-5.85,5.59c-12.77,14.22-18,29.93-15.63,46.7A43.44,43.44,0,0,0,214,89.9a44.55,44.55,0,0,0,4.56,4.34,45.42,45.42,0,0,0,29.23,10.17h0a63.53,63.53,0,0,0,8.17-.56A62.29,62.29,0,0,0,284,91.8a69.46,69.46,0,0,0,6.18-5.25C304,72.92,310.38,57.36,309.09,40.3Zm-59-28.4A43.37,43.37,0,0,1,261.43,10h.63c8.19,0,17.84,1.31,27.39,11a34.8,34.8,0,0,1,9.38,23.1c.32,13.95-5.58,26.53-17.52,37.37-8.64,7.43-17.83,11.6-28.06,12.75-1.51.12-3,.18-4.35.18a35.32,35.32,0,0,1-24.72-9.28A34.16,34.16,0,0,1,213.27,63c-1.22-13.81,3.8-26.56,14.89-37.87a57.33,57.33,0,0,1,5-4.36A52.39,52.39,0,0,1,250.11,11.9Z"/><path class="cls-1" d="M401.15,34.29a34.43,34.43,0,0,0,1.18-14.49c-.76-4.16-2-8.59-7.38-13.11a22.34,22.34,0,0,0-9.05-4.34,25.92,25.92,0,0,0-3.13-.54c-1.32-.16-2.86-.28-4.58-.37s-4-.15-6.06-.15H358.19L342,103.13h10.42l7.33-46.26h.1l24.54,46.26h11.82L371.52,56.78a33.59,33.59,0,0,0,20.09-7.57A30.12,30.12,0,0,0,401.15,34.29Zm-17.74,8.5a16.59,16.59,0,0,1-1.76,1.2c-3.22,1.8-5.68,2.47-10.12,2.76-1.45.1-3.11.15-4.69.15h-5.48L367,11.26h.44c2.9,0,6.18,0,8.49.11,1.58.06,2.77.14,3.86.26A18,18,0,0,1,382,12a14.1,14.1,0,0,1,6,2.92c4.56,4.61,4.47,8.87,3.89,13.87a22.44,22.44,0,0,1-3,8.06A20.7,20.7,0,0,1,383.41,42.79Z"/><path class="cls-1" d="M169.93,23c-.41-5-1.31-10.35-7.37-16.15a20.82,20.82,0,0,0-8.68-4.44,30,30,0,0,0-3-.57,72.68,72.68,0,0,0-9.2-.55h-19L106.52,103.13h10.41l7.36-46.39h9.25c1.81,0,3.68-.07,5.55-.23C145.47,56,150,54.68,154.7,52a28,28,0,0,0,7-5.7A33.48,33.48,0,0,0,169.93,23ZM134.72,46.77h-8.85l5.63-35.51H140a66.79,66.79,0,0,1,7.66.39,20.34,20.34,0,0,1,2.08.35,14.17,14.17,0,0,1,4.36,1.85,12.12,12.12,0,0,1,3.21,3.22c3.41,6,3.12,12.27-.86,19.25a22.85,22.85,0,0,1-5,5.58,21.61,21.61,0,0,1-12.63,4.71C137.46,46.72,136.06,46.77,134.72,46.77Z"/><path class="cls-1" d="M59.56,54.85a26.56,26.56,0,0,0-2.57-2l-.06,0L39.66,43C38.43,42.37,37.15,41.69,36,41s-2.15-1.23-3-1.79-1.44-.93-2-1.35a14,14,0,0,1-3.79-4.14,9.66,9.66,0,0,1-1.24-5.54,20,20,0,0,1,4.92-11.37A19.42,19.42,0,0,1,45.45,10h0a17,17,0,0,1,10.6,3.25A15.2,15.2,0,0,1,58,15a16.71,16.71,0,0,1,1.87,2.44A29.37,29.37,0,0,1,61.8,21l.73,1.58,8.29-6.05-.38-1A22.43,22.43,0,0,0,62.9,5.32,25.91,25.91,0,0,0,50.24.22,34.79,34.79,0,0,0,46.45,0,30.88,30.88,0,0,0,16.68,22.13a26.82,26.82,0,0,0-1.2,10.36,17.43,17.43,0,0,0,6.08,11.7A21.29,21.29,0,0,0,23.92,46l0,0,16.29,9.41c1.43.73,2.88,1.51,4.21,2.26s2.46,1.42,3.48,2.06,1.63,1.06,2.3,1.55a15.32,15.32,0,0,1,4.24,4.54c2.1,3.71,1.87,7.77-.76,13.52A26.08,26.08,0,0,1,46.92,88c-5.42,4.32-11,6.51-16.66,6.51a23.19,23.19,0,0,1-8.83-1.8,15.79,15.79,0,0,1-6.1-5,19.35,19.35,0,0,1-1.62-2.54A30.37,30.37,0,0,1,11,77.68l-.38-1.63L1,80.11l.2,1.11a33,33,0,0,0,1,4,27.69,27.69,0,0,0,7.87,12.54,26.91,26.91,0,0,0,18.44,6.7h0a45.53,45.53,0,0,0,5.33-.34,40.37,40.37,0,0,0,22-11C63.64,85.15,66.92,76.88,66.14,67A18.7,18.7,0,0,0,59.56,54.85Z"/><path class="cls-1" d="M905.72,24.38a40.35,40.35,0,0,0-6.65-10A36.41,36.41,0,0,0,882.69,3.76a44.77,44.77,0,0,0-5.19-1.32,62.4,62.4,0,0,0-6.44-.83c-2.58-.21-5.32-.32-7.95-.32H843.72L827.57,103.13h20c2.92,0,6-.14,8.85-.41a65.11,65.11,0,0,0,7.5-1.1,52.15,52.15,0,0,0,18.21-7.71,65.4,65.4,0,0,0,11.31-9.58c11-12.08,16.4-25.47,16.39-41A44.47,44.47,0,0,0,905.72,24.38Zm-23.91,57.4a46.69,46.69,0,0,1-9.5,6.42,45,45,0,0,1-16.63,4.61c-2.37.23-4.88.35-7.27.35h-8.85l13-81.9h9.5a65.68,65.68,0,0,1,11.5.93,33.41,33.41,0,0,1,4.14,1,28.89,28.89,0,0,1,12.89,8.11,34.77,34.77,0,0,1,2.89,3.6c4.84,7.18,6.66,15.12,5.71,25s-5.4,19.22-12.76,27.39A55.76,55.76,0,0,1,881.81,81.78Z"/><polygon class="cls-1" points="958.64 1.29 942.49 103.13 952.9 103.13 969.05 1.29 958.64 1.29"/><polygon class="cls-1" points="629.25 1.29 627.67 11.26 652.94 11.26 638.37 103.13 648.78 103.13 663.35 11.26 688.62 11.26 690.2 1.29 629.25 1.29"/><path class="cls-1" d="M787,1.29l-9.65,60.84c-.38,2.42-.86,5-1.34,7.3-.42,2-.85,3.8-1.29,5.34a25.06,25.06,0,0,1-3.79,8.38,21.79,21.79,0,0,1-5.47,5.49,33.17,33.17,0,0,1-18.28,5.81,26.3,26.3,0,0,1-13.78-3.69,15.63,15.63,0,0,1-4-3.42c-2.18-2.73-2.69-5.16-3.13-8a19.52,19.52,0,0,1-.14-2.19c0-.93,0-2,.09-3.14.09-1.38.24-3,.46-4.86s.54-4.17.88-6.34l9.75-61.49H726.83L716.9,63.94c-.42,2.62-.79,5.34-1,7.65-.21,2-.34,3.79-.38,5.35A26,26,0,0,0,717,86.76c1.14,3.22,3,7.07,8.37,11.17a34.28,34.28,0,0,0,20.49,6.49l1.47,0a43.07,43.07,0,0,0,28.66-12,41.72,41.72,0,0,0,5.16-6.65,28,28,0,0,0,1.76-3.32,36.78,36.78,0,0,0,1.49-4c.53-1.69,1-3.57,1.49-5.76.53-2.45,1.07-5.31,1.5-8.06l10-63.3Z"/><path class="cls-1" d="M578.67,54.83a26.44,26.44,0,0,0-2.55-2l0,0L558.79,43c-1.24-.62-2.51-1.29-3.68-1.94s-2.14-1.23-3-1.79-1.43-.92-2-1.36a13.75,13.75,0,0,1-3.79-4.13A9.75,9.75,0,0,1,545,28.21,19.94,19.94,0,0,1,550,16.85,19.39,19.39,0,0,1,564.58,10h0a16.91,16.91,0,0,1,10.6,3.26,15.19,15.19,0,0,1,2,1.8A17.39,17.39,0,0,1,579,17.47,31,31,0,0,1,580.93,21l.72,1.58,8.3-6.05-.38-1A22.43,22.43,0,0,0,582,5.32,25.91,25.91,0,0,0,569.37.22,34.79,34.79,0,0,0,565.58,0a30.88,30.88,0,0,0-29.77,22.12,26.8,26.8,0,0,0-1.2,10.36,17.43,17.43,0,0,0,6.08,11.7A22.27,22.27,0,0,0,543.05,46l0,0,16.29,9.41c1.41.72,2.87,1.5,4.21,2.26s2.45,1.41,3.48,2.06c.87.54,1.62,1.05,2.3,1.55a15.31,15.31,0,0,1,4.24,4.54c2.11,3.71,1.87,7.77-.76,13.52a26,26,0,0,1-6.8,8.59c-5.42,4.32-11,6.51-16.66,6.51a23.19,23.19,0,0,1-8.83-1.8,15.74,15.74,0,0,1-6.1-5,19.6,19.6,0,0,1-1.62-2.53,30.37,30.37,0,0,1-2.67-7.44l-.38-1.63-9.63,4.06.22,1.13A29,29,0,0,0,528,96.53c6.75,6.53,13.23,7.87,20.9,7.87h.87c9.73-.71,17.8-4.37,25.43-11.57,7.69-7.91,10.89-16.14,10.07-26A18.69,18.69,0,0,0,578.67,54.83Z"/><polygon class="cls-1" points="439.56 1.29 437.98 11.26 463.25 11.26 448.68 103.13 459.09 103.13 473.66 11.26 498.93 11.26 500.51 1.29 439.56 1.29"/><path d="M545.73,308.49l14.11-89.06c.51-3.21.92-6.61,1.06-8.86.06-.89.08-1.61.07-2.25a13.73,13.73,0,0,0-.08-1.47c-.29-2.19-.55-3.33-1.48-4.63a4.78,4.78,0,0,0-2.8-1.65,21.2,21.2,0,0,0-3.25-.3,9.39,9.39,0,0,0-6.08,2.11c-2.58,2.35-3.32,4.19-4.31,7-.23.72-.47,1.55-.72,2.52-.29,1.16-.59,2.49-.88,4-.33,1.64-.64,3.36-.9,5l-13.89,87.66H434l28.67-181h91.31l-5.56,20.17c3-2.7,5.91-5.2,8.62-7.37,2.56-2.05,5-3.88,7.25-5.41a62.1,62.1,0,0,1,6-3.65,67.34,67.34,0,0,1,26.27-7.36c2.27-.18,4.55-.27,6.78-.27h.76a67.21,67.21,0,0,1,20,3.11,44,44,0,0,1,22.52,16,46.62,46.62,0,0,1,3.07,4.76,51.44,51.44,0,0,1,2.59,5.32,55.76,55.76,0,0,1,2.09,5.92,67.42,67.42,0,0,1,1.56,6.59c.43,2.32.76,4.77,1,7.28s.34,5.28.34,8-.14,5.78-.4,8.82-.63,6.26-1.13,9.37l-17.38,109.7Z"/><path class="cls-1" d="M547.39,307.07l13.85-87.42c.52-3.26.93-6.7,1.07-9,.07-.93.09-1.68.08-2.37s0-1.06-.09-1.58c-.32-2.43-.65-3.78-1.73-5.31a6.16,6.16,0,0,0-3.64-2.21,22.62,22.62,0,0,0-3.57-.33,10.84,10.84,0,0,0-7,2.43c-2.81,2.53-3.68,4.58-4.75,7.61-.25.77-.5,1.64-.75,2.64-.3,1.19-.61,2.54-.9,4-.34,1.67-.65,3.41-.91,5l-13.7,86.47H435.61L463.84,129h88.24l-6.39,23.16c4.15-3.91,8.38-7.62,12.19-10.67,2.53-2,5-3.84,7.17-5.35a60.32,60.32,0,0,1,5.88-3.56,65.88,65.88,0,0,1,25.72-7.21c2.23-.17,4.47-.26,6.67-.26h.75a65.62,65.62,0,0,1,19.6,3A43.81,43.81,0,0,1,642,139.45a42.38,42.38,0,0,1,3.46,4.12,45.87,45.87,0,0,1,3,4.61,47.79,47.79,0,0,1,2.52,5.18,55.19,55.19,0,0,1,2,5.77,64.59,64.59,0,0,1,1.53,6.45c.42,2.27.74,4.68,1,7.15s.33,5.19.33,7.87-.14,5.7-.39,8.7-.63,6.2-1.12,9.27l-17.19,108.5Z"/><path class="cls-2" d="M649,166.61a57.7,57.7,0,0,0-1.39-5.88,50,50,0,0,0-1.83-5.19,44.23,44.23,0,0,0-2.23-4.58,38.1,38.1,0,0,0-2.6-4,36.49,36.49,0,0,0-3-3.54,38,38,0,0,0-16-9.9,60.07,60.07,0,0,0-17.9-2.76c-2.27,0-4.64.06-6.92.24a60.46,60.46,0,0,0-23.53,6.57,54.89,54.89,0,0,0-5.33,3.24c-2,1.33-4.2,3-6.81,5.08a215.06,215.06,0,0,0-17.91,16.3H537l7.61-27.54h-76L442.25,301.4h78.28l12.94-81.68c.29-1.83.62-3.65.95-5.28s.66-3.08,1-4.3.6-2.21.88-3.07a21.33,21.33,0,0,1,6.5-10.15c5-3.89,9.69-4.23,15.25-3.3a11.92,11.92,0,0,1,7.18,4.49,15.89,15.89,0,0,1,2.74,7.94c.07.69.12,1.38.13,2.16s0,1.66-.09,2.81c-.16,2.48-.59,6.08-1.13,9.52L554,301.4H632.3l16.43-103.72c.48-3,.83-6,1.07-8.85s.36-5.64.37-8.24-.1-5-.31-7.36S649.36,168.69,649,166.61Z"/><path d="M272.28,312.39a71,71,0,0,1-10.09-.71,60.49,60.49,0,0,1-10.39-2.46,56.9,56.9,0,0,1-9.38-4.12,57.51,57.51,0,0,1-8.46-5.74,59.91,59.91,0,0,1-7.53-7.42,66.86,66.86,0,0,1-6.52-9.11,76.49,76.49,0,0,1-5.32-10.77,89.28,89.28,0,0,1-3.92-12.34,102,102,0,0,1-2.29-13.61,108.54,108.54,0,0,1-.49-14.31c.43-14.35,4.18-30.28,10.58-44.86a129.12,129.12,0,0,1,7.25-14.15,123.33,123.33,0,0,1,8.67-12.73,112.67,112.67,0,0,1,9.71-10.95,99.91,99.91,0,0,1,10.46-9,89.5,89.5,0,0,1,11-7,78.44,78.44,0,0,1,34.94-9.48h1.69a77.87,77.87,0,0,1,21.2,2.79,50.44,50.44,0,0,1,17.28,9,46.79,46.79,0,0,1,6.39,6.18l.44-14.05H439l-28.67,181H318.68l4.48-16.41c-1.53,1.25-3,2.44-4.49,3.55a100.28,100.28,0,0,1-11.88,7.95,65.7,65.7,0,0,1-10.71,4.81A71.45,71.45,0,0,1,272.28,312.39Zm31.92-78.11c3.21,3.11,6,3.7,10,3.7.7,0,1.42,0,2.15,0,5.18-.52,9.38-1.94,14-7.4a30.66,30.66,0,0,0,6.36-16.69c.21-5.21-.34-8.41-4.07-12.25a14.18,14.18,0,0,0-10-3.55c-.91,0-1.9.05-3,.15-3.35.51-7.49,1.7-12.09,6.53-4.58,5.19-6.56,10.49-6.8,18.25C300.85,227.12,301.15,230.64,304.2,234.28Z"/><path class="cls-1" d="M272.28,311a69.58,69.58,0,0,1-9.89-.69,58.54,58.54,0,0,1-10.14-2.41,55.29,55.29,0,0,1-9.15-4,55.9,55.9,0,0,1-8.24-5.6,57.71,57.71,0,0,1-7.35-7.24,64.82,64.82,0,0,1-6.38-8.91,76.54,76.54,0,0,1-5.23-10.58,87.73,87.73,0,0,1-3.85-12.14A101,101,0,0,1,209.79,246a107.38,107.38,0,0,1-.48-14.12c.42-14.18,4.13-29.93,10.45-44.34a130,130,0,0,1,7.18-14,123,123,0,0,1,8.56-12.58,112.43,112.43,0,0,1,9.6-10.81,97.05,97.05,0,0,1,10.31-8.86,87.8,87.8,0,0,1,10.78-6.87,76.94,76.94,0,0,1,34.31-9.31l1.65,0A76.11,76.11,0,0,1,323,127.8a48.88,48.88,0,0,1,16.79,8.7,45.29,45.29,0,0,1,6.72,6.62c.65.8,1.27,1.62,1.85,2.42l.53-16.59h88.48L409.09,307.07H320.54l5.18-19c-2.69,2.29-5.38,4.47-7.91,6.41a99.57,99.57,0,0,1-11.72,7.84,65.76,65.76,0,0,1-10.47,4.71A70.31,70.31,0,0,1,272.28,311Zm30.88-75.72c3.55,3.46,6.76,4.15,11.08,4.15.72,0,1.46,0,2.2-.05,5.62-.56,10.13-2.11,15.07-7.9A32.11,32.11,0,0,0,338.2,214c.23-5.58-.42-9.23-4.51-13.41a15.52,15.52,0,0,0-11-3.94c-.95,0-2,0-3.14.15-3.71.57-8.14,1.87-13,7-4.85,5.49-6.94,11.07-7.18,19.19C299.44,227.46,299.8,231.26,303.16,235.25Z"/><path class="cls-2" d="M353.69,155h-6a24.07,24.07,0,0,0-1.38-2.33,62,62,0,0,0-4.22-6,38.62,38.62,0,0,0-5.87-5.78,42,42,0,0,0-6.85-4.47,43.55,43.55,0,0,0-8-3.22,72,72,0,0,0-20.7-2.49,70.89,70.89,0,0,0-31.78,8.63,81.65,81.65,0,0,0-10.09,6.43,92.81,92.81,0,0,0-9.71,8.35,104.56,104.56,0,0,0-9.1,10.25,113.71,113.71,0,0,0-8.16,12A122.06,122.06,0,0,0,225,189.79c-5.82,13.27-9.57,28.43-10,42.24a102.42,102.42,0,0,0,.46,13.37,94.42,94.42,0,0,0,2.13,12.66,83,83,0,0,0,3.6,11.36A69.55,69.55,0,0,0,226,279.2a60.93,60.93,0,0,0,5.83,8.15,52.19,52.19,0,0,0,6.63,6.52,48.9,48.9,0,0,0,15.6,8.63,53.73,53.73,0,0,0,9.14,2.17,65.61,65.61,0,0,0,30.55-3,60,60,0,0,0,9.59-4.3,93.17,93.17,0,0,0,11-7.4c4.14-3.16,8.85-7.11,13.37-11.27h6.41L328,301.4h76.29l26.43-166.78H354.33Zm-9.83,59.33A37.85,37.85,0,0,1,335.91,235c-6.43,7.57-12.65,9.35-19.08,10-6.34.25-12-.07-17.82-5.9-4.72-5.47-5.23-10.86-5.32-16.21.22-8.07,2-15.48,8.67-23a26.93,26.93,0,0,1,16.5-8.77c6.65-.6,12.63,0,18.7,5.27C343.61,202.5,344.13,208.23,343.86,214.36Z"/><polygon points="50.73 308.49 0 127.53 99.6 127.53 107.88 198.65 110.77 190.58 139.4 127.53 239.86 127.53 132.46 308.49 50.73 308.49"/><polygon class="cls-1" points="51.8 307.07 1.87 128.95 98.34 128.95 107.17 204.82 112.09 191.11 140.32 128.95 237.37 128.95 131.66 307.07 51.8 307.07"/><polygon class="cls-2" points="143.97 134.62 117.35 193.24 109.21 215.94 102.76 215.94 93.29 134.62 9.35 134.62 56.1 301.4 128.43 301.4 227.41 134.62 143.97 134.62"/><path d="M1161.36,102.93c-12.84,0-23-4-32-12.61l-.18-.19a42.65,42.65,0,0,1-12.44-28V62c-.86-16.54,5.52-31.43,19-44.28l.12-.11c9.73-8.83,20.34-14,32.46-15.7a50.85,50.85,0,0,1,6.58-.44h.39c9.56.26,22,2.19,33.53,14.88l.13.15a42.58,42.58,0,0,1,8.8,16.33l0,.2c4.66,18.2-.27,35.32-14.63,50.91l-.1.11a65.9,65.9,0,0,1-5.62,5.2c-10.26,8.27-21.05,12.72-33,13.61h-.23C1163.2,102.91,1162.28,102.93,1161.36,102.93Z"/><path class="cls-1" d="M1161.36,101.51c-12.45,0-22.31-3.88-31-12.21l-.16-.17a41.27,41.27,0,0,1-12-27.09l0-.15c-.83-16.08,5.4-30.6,18.52-43.16l.11-.1C1146.25,10,1156.62,5,1168.46,3.3a49.37,49.37,0,0,1,6.37-.42h.38c9.25.26,21.3,2.13,32.49,14.43l.12.13a41.13,41.13,0,0,1,8.5,15.79l0,.17c4.52,17.68-.29,34.36-14.31,49.58l-.08.09a64.73,64.73,0,0,1-5.5,5.09c-10,8.08-20.56,12.42-32.21,13.28l-.2,0c-.9,0-1.81.05-2.71.05Z"/><path class="cls-2" d="M1210.87,34.81a35.61,35.61,0,0,0-7.36-13.69c-9.14-10-18.63-12.3-28.46-12.57a43.59,43.59,0,0,0-5.79.36c-9.21,1.32-18.88,5-28.69,13.92-12.8,12.25-17.46,25.54-16.77,38.77.61,7.74,2.78,15.63,10.45,23.6,9.55,9.13,19.35,11,29.6,10.59,9.44-.7,19.07-4,29-12a57.94,57.94,0,0,0,5-4.64C1210.93,65,1214.78,50.09,1210.87,34.81Z"/><path class="cls-1" d="M1102.22,33l0-.2a42.58,42.58,0,0,0-8.8-16.33l-.13-.15c-11.55-12.69-24-14.62-33.53-14.88h-.39a50.85,50.85,0,0,0-6.58.44c-12.12,1.74-22.74,6.87-32.46,15.7l-.12.11c-13.43,12.85-19.81,27.74-18.95,44.28v.17a42.63,42.63,0,0,0,12.43,28l.19.19c9,8.6,19.17,12.61,32,12.61.92,0,1.84,0,2.79-.06h.23c11.94-.89,22.74-5.34,33-13.61a65.9,65.9,0,0,0,5.62-5.2l.1-.11C1102,68.35,1106.88,51.23,1102.22,33Zm-20.86,45.13a57.78,57.78,0,0,1-4.88,4.51c-8.84,7.12-18.07,11-28.2,11.71-.81,0-1.62,0-2.43,0-10.66,0-18.72-3.16-26.09-10.2a34.19,34.19,0,0,1-10.06-22.7c-.72-13.93,4.77-26.6,16.31-37.64,8.41-7.64,17.55-12.07,27.92-13.56a42.41,42.41,0,0,1,5.39-.35h.18c8.75.24,18.14,1.88,27.42,12.07A34.37,34.37,0,0,1,1094,35.16C1097.88,50.37,1093.62,64.84,1081.36,78.16Z"/><polygon points="1321.83 308.49 1301.58 247.04 1291.8 308.49 1199.18 308.49 1248.12 0.92 1340.74 0.92 1315.11 162.02 1315.21 161.84 1351.43 103.75 1461.21 103.75 1378.35 204.71 1431.1 308.49 1321.83 308.49"/><polygon class="cls-1" points="1322.85 307.07 1301.1 241.05 1290.59 307.07 1200.84 307.07 1249.33 2.33 1339.08 2.33 1312.49 169.47 1316.44 162.54 1352.21 105.16 1458.22 105.16 1376.67 204.53 1428.79 307.07 1322.85 307.07"/><polygon class="cls-2" points="1445.29 111.59 1355.08 111.59 1321.12 166.06 1310.92 183.94 1304.45 183.94 1332.32 8.76 1254.05 8.76 1207.6 300.65 1285.88 300.65 1297.27 229.04 1303.24 229.04 1326.83 300.65 1418.91 300.65 1369.66 203.73 1445.29 111.59"/><path d="M652.33,446.59l51.16-322.95h120c8.85,0,17.8.36,26.6,1.07,8.42.67,16.54,1.68,24.14,3a211.62,211.62,0,0,1,21,4.68,180.31,180.31,0,0,1,18.44,6.19,151.94,151.94,0,0,1,16,7.46,128.47,128.47,0,0,1,13.79,8.59,117.06,117.06,0,0,1,11.85,9.7,107.66,107.66,0,0,1,25.32,36,118,118,0,0,1,5.22,14.57A134.56,134.56,0,0,1,989.46,231a156.89,156.89,0,0,1,1.74,17.94,195.26,195.26,0,0,1-.26,20,220.22,220.22,0,0,1-8.32,47.59,184.52,184.52,0,0,1-22,47.79,176.61,176.61,0,0,1-15.57,20.55A176.1,176.1,0,0,1,905.87,418a180.86,180.86,0,0,1-23.23,12.22,187.86,187.86,0,0,1-25.31,9,202,202,0,0,1-27,5.51,211.29,211.29,0,0,1-28.18,1.89Zm139.5-103c3.72,0,7.67-.06,11.47-.43,3.17-.28,6.24-.68,9.14-1.21a78.66,78.66,0,0,0,8.07-1.86,74.16,74.16,0,0,0,7.32-2.49,67.26,67.26,0,0,0,6.59-3A63.53,63.53,0,0,0,840.3,331a59,59,0,0,0,5.22-4,55.64,55.64,0,0,0,8.7-9.45,56.37,56.37,0,0,0,3.52-5.49,61.32,61.32,0,0,0,3-6.08,66.71,66.71,0,0,0,2.46-6.82,87.05,87.05,0,0,0,3.18-16.2c.29-2.85.44-5.6.46-8.18a61.78,61.78,0,0,0-.33-7,51.46,51.46,0,0,0-1-6.06,43.3,43.3,0,0,0-1.52-5.2,36.51,36.51,0,0,0-2-4.5,33.84,33.84,0,0,0-2.43-3.92,32.94,32.94,0,0,0-6.38-6.63,37.79,37.79,0,0,0-4.13-2.8,43.16,43.16,0,0,0-5-2.49,52,52,0,0,0-5.91-2.12,63.06,63.06,0,0,0-7-1.65c-2.63-.48-5.47-.85-8.46-1.09-4.1-.38-8.64-.41-12.57-.41h-.52Z"/><path class="cls-1" d="M654,445.18,704.7,125.06H823.52c8.82,0,17.73.36,26.48,1.06,8.38.67,16.46,1.67,24,3a209.42,209.42,0,0,1,20.87,4.66,179.82,179.82,0,0,1,18.29,6.13,149.31,149.31,0,0,1,15.87,7.4,129.25,129.25,0,0,1,13.64,8.49,115.32,115.32,0,0,1,11.7,9.59,108.92,108.92,0,0,1,10,10.67,105.95,105.95,0,0,1,15,24.81,116.11,116.11,0,0,1,5.16,14.39,133,133,0,0,1,3.52,16A153.55,153.55,0,0,1,989.78,249a192.43,192.43,0,0,1-.25,19.85,219.69,219.69,0,0,1-8.27,47.28A183.88,183.88,0,0,1,972,340.78a181.07,181.07,0,0,1-12.51,22.73,174.38,174.38,0,0,1-54.34,53.29,182.69,182.69,0,0,1-23.06,12.13,189.21,189.21,0,0,1-25.12,8.9,202.52,202.52,0,0,1-26.84,5.47,212,212,0,0,1-28,1.88ZM791.45,345c3.87,0,8-.06,12-.44,3.22-.28,6.32-.69,9.25-1.22s5.55-1.14,8.21-1.89a75.94,75.94,0,0,0,7.45-2.54,69.06,69.06,0,0,0,6.73-3.11,62.24,62.24,0,0,0,6-3.61,59.91,59.91,0,0,0,5.34-4.1,56.36,56.36,0,0,0,8.92-9.69,59.21,59.21,0,0,0,3.62-5.62,62,62,0,0,0,3.07-6.23,68.6,68.6,0,0,0,2.52-7,88,88,0,0,0,3.23-16.47c.29-2.88.45-5.68.46-8.31a62.23,62.23,0,0,0-.33-7.2,54.56,54.56,0,0,0-1-6.22,43.73,43.73,0,0,0-1.57-5.38,37.79,37.79,0,0,0-2.07-4.67,33.34,33.34,0,0,0-2.54-4.09,34.51,34.51,0,0,0-3-3.66,35,35,0,0,0-3.61-3.25,37.38,37.38,0,0,0-4.28-2.92,46,46,0,0,0-5.11-2.56,54.08,54.08,0,0,0-6.07-2.18,68.6,68.6,0,0,0-7.15-1.69c-2.68-.48-5.57-.85-8.6-1.11-4.15-.38-8.73-.41-12.69-.41h-1.73L790.17,345Z"/><path class="cls-2" d="M982.46,232.08a126,126,0,0,0-3.37-15.28,108.91,108.91,0,0,0-4.91-13.7,102.33,102.33,0,0,0-6.37-12.33,99.69,99.69,0,0,0-7.87-11.16,101.86,101.86,0,0,0-9.43-10.12,108.49,108.49,0,0,0-11.12-9.11,123.67,123.67,0,0,0-13-8.12,145.36,145.36,0,0,0-15.27-7.11,173.19,173.19,0,0,0-17.71-5.94,202.92,202.92,0,0,0-20.31-4.53c-7.29-1.25-15.16-2.24-23.51-2.91s-17.19-1-26-1h-114L660.63,439.51H802.11a205.21,205.21,0,0,0,27.24-1.83,193.64,193.64,0,0,0,26.08-5.32,181.1,181.1,0,0,0,24.37-8.63A175.36,175.36,0,0,0,902.13,412a170.48,170.48,0,0,0,20.07-14.61,168.6,168.6,0,0,0,32.52-36.95,175.65,175.65,0,0,0,12.11-22,178.22,178.22,0,0,0,9-23.92,213.92,213.92,0,0,0,8-46,187.31,187.31,0,0,0,.25-19.27A150.88,150.88,0,0,0,982.46,232.08Zm-109,51.59A94,94,0,0,1,870,301.2a72.4,72.4,0,0,1-2.72,7.54,68,68,0,0,1-3.35,6.79,63,63,0,0,1-4,6.17,62.47,62.47,0,0,1-9.81,10.66,65.55,65.55,0,0,1-5.85,4.49,70.29,70.29,0,0,1-6.56,3.94,74.87,74.87,0,0,1-7.28,3.36,84.34,84.34,0,0,1-8,2.72c-2.77.79-5.67,1.46-8.75,2s-6.35,1-9.72,1.29c-6.81.65-13.75.4-20.44.45l20.09-126.86c6.61,0,13.52-.14,19.73.43,3.3.28,6.34.68,9.14,1.18a74.34,74.34,0,0,1,7.75,1.83,62,62,0,0,1,6.69,2.4,51.41,51.41,0,0,1,5.75,2.9,42.65,42.65,0,0,1,4.91,3.34,39.59,39.59,0,0,1,10.71,12.82,41.68,41.68,0,0,1,2.37,5.37,48.75,48.75,0,0,1,1.78,6.08,59.6,59.6,0,0,1,1.11,6.88,68.64,68.64,0,0,1,.36,7.81C873.92,277.61,873.75,280.62,873.44,283.67Z"/><polygon points="977.94 308.49 1006.61 127.53 1099.23 127.53 1070.56 308.49 977.94 308.49"/><polygon class="cls-1" points="979.6 307.07 1007.82 128.95 1097.58 128.95 1069.35 307.07 979.6 307.07"/><polygon class="cls-2" points="1012.66 134.62 986.24 301.4 1064.51 301.4 1090.94 134.62 1012.66 134.62"/><polygon points="1073.19 379.44 1113.1 127.53 1205.73 127.53 1165.81 379.44 1073.19 379.44"/><polygon class="cls-1" points="1074.85 378.02 1114.31 128.95 1204.07 128.95 1164.6 378.02 1074.85 378.02"/><polygon class="cls-2" points="1081.48 372.36 1159.76 372.36 1197.43 134.62 1119.16 134.62 1081.48 372.36"/></g></g></svg>